<svg version="1.2" xmlns="http://www.w3.org/2000/svg" viewBox="0 0 1920 1080" width="1920" height="1080">
	<style>
		.s0 { fill: #101828 } 
	</style>
	<path id="Relleno de color sólido 1" class="s0" d="m-50.41 413.15c0 0 70.46 67.03 132.68 76.03 62.22 9 193.57-50.48 265-25.35 71.44 25.13 110.61 73.96 207.4 20.74 96.78-53.22 124.44-82.96 175.13-73.96 50.7 9 99.09 64.74 223.53 57.61 124.44-7.13 99.09-23.04 184.35-4.61 81.52 17.63 131.35 37.31 198.18 25.57 66.83-11.74 126.74-73.74 212-41.7 85.26 32.04 138.27 28.09 218.92 27.87 80.65-0.22 168.22-73.74 168.22-73.74l15.22 746.04c0 0-2098.31 172.39-2058.61 127.58 18.6-20.99 57.98-862.08 57.98-862.08z"/>
</svg>