<svg version="1.2" xmlns="http://www.w3.org/2000/svg" viewBox="0 0 1640 148" width="1640" height="148">
	<style>
		.s0 { fill: #101828 } 
	</style>
	<path id="Relleno de color sólido 1" class="s0" d="m0 56c0 0 10 52.19 64 60 54 7.81 168-43.81 230-22 62 21.81 96 64.19 180 18 84-46.19 108-72 152-64.19 44 7.81 86 56.19 194 50 108-6.19 86-20 160-4 70.75 15.3 114 32.38 172 22.19 58-10.19 110-64 184-36.19 74 27.81 120 24.38 190 24.19 70-0.19 146-64 146-64l-20 200c0 0-1712-15.81-1702-38 10-22.19 50-146 50-146z"/>
</svg>